<?xml version="1.0" encoding="utf-8"?>
<!-- Generator: Adobe Illustrator 17.0.0, SVG Export Plug-In . SVG Version: 6.00 Build 0)  -->
<!DOCTYPE svg PUBLIC "-//W3C//DTD SVG 1.1//EN" "http://www.w3.org/Graphics/SVG/1.1/DTD/svg11.dtd">
<svg version="1.1" id="Layer_1" xmlns="http://www.w3.org/2000/svg" xmlns:xlink="http://www.w3.org/1999/xlink" x="0px" y="0px"
	 width="372px" height="60px" viewBox="0 0 372 60" enable-background="new 0 0 372 60" xml:space="preserve">
<g>
	<text transform="matrix(1 0 0 1 80.7959 44.7225)"><tspan x="0" y="0" fill="#FFFFFF" stroke="#FFFFFF" font-family="'GothamHTF-Book'" font-size="54.5868" letter-spacing="-1">coder</tspan><tspan x="150.276" y="0" fill="#0AA5BE" stroke="#06A4BE" stroke-miterlimit="10" font-family="'GothamHTF-Book'" font-size="54.5868" letter-spacing="-1">front</tspan></text>
	<path opacity="0.8" fill="none" stroke="#06A4BE" stroke-width="2.7" stroke-miterlimit="10" d="M72.319,29.871
		c0,15.356-12.449,27.805-27.805,27.805S16.709,45.227,16.709,29.871S29.158,2.066,44.514,2.066S72.319,14.514,72.319,29.871"/>
	<path opacity="0.8" fill="none" stroke="#06A4BE" stroke-width="2.7" stroke-miterlimit="10" d="M72.319,29.871
		c0,7.678-12.449,13.902-27.805,13.902s-27.805-6.224-27.805-13.902s12.449-13.902,27.805-13.902S72.319,22.192,72.319,29.871"/>
	<path opacity="0.8" fill="none" stroke="#06A4BE" stroke-width="2.7" stroke-miterlimit="10" d="M64.175,49.532
		c-5.429,5.429-18.633,1.028-29.492-9.831s-15.26-24.062-9.831-29.492s18.633-1.028,29.492,9.831S69.605,44.102,64.175,49.532"/>
	
		<ellipse opacity="0.8" fill="none" stroke="#06A4BE" stroke-width="2.7" stroke-miterlimit="10" cx="44.514" cy="29.871" rx="13.902" ry="27.805"/>
	<path opacity="0.8" fill="none" stroke="#06A4BE" stroke-width="2.7" stroke-miterlimit="10" d="M64.175,10.21
		c5.429,5.429,1.028,18.633-9.831,29.492s-24.062,15.26-29.492,9.831s-1.028-18.633,9.831-29.492S58.746,4.78,64.175,10.21"/>
</g>
</svg>
